<svg xmlns="http://www.w3.org/2000/svg" width="1000" height="1000" viewBox="0 0 1000 1000">
    <defs>
        <style>
            .cls-1 {
            fill: #28cee0;
            }

            .cls-2 {
            fill: #fff;
            }
        </style>
    </defs>
    <title>FoQA</title>
    <rect class="cls-1" x="-18.72244" y="-16.75499" width="1030.40499" height="1037.61836" rx="12"/>
    <path class="cls-2"
          d="M820.577,702.46718a16.73125,16.73125,0,0,1-7.00457-31.21944C850.9389,649.69068,891.11372,603.526,895.323,563.48207c-9.28269,2.44178-30.83321,10.98474-75.872,40.43667-34.81992,22.76159-65.8037,46.34147-66.11138,46.57714a16.739,16.739,0,0,1-13.00755,3.18151c-3.81-.65463-94.19514-16.5753-186.09251-59.66324-54.70767-25.64852-98.46988-55.66344-130.08866-89.21338q-7.69848-8.16983-14.4412-16.61459l-19.33131-28.10993a208.40773,208.40773,0,0,1-13.217-26.83995l-9.89805-32.0181c-.45169.15056-4.15692-30.57791-4.17656-30.92486l.635-35.00977c1.55148-35.324,2.97858-71.47282-6.60525-86.117-10.59851-16.18908-56.46864-42.98975-96.57145-36.46306-24.85641,4.05218-44.91437-3.54811-61.038-9.66238-18.44756-6.98493-23.89411-8.052-29.92982-2.88039-27.50768,23.60607,11.45607,89.12173,27.272,110.214a16.73116,16.73116,0,0,1,3.34517,10.39557l-.48443,24.0643-.68082,33.6285c-.22257,11.06984-.67427,22.16587-.67427,33.24226l-.68082,33.60885-.707,34.80029-.68082,33.7136s-1.905,61.76461-2.11446,69.79041l-3.44337,47.618c-.01964.01964-.03928.04583-.05892.06547-39.23215,36.391-85.99258,89.91383-85.99258,138.25847v32.60072c28.60091-2.47451,77.43694-14.19694,114.528-45.04529l18.12474-15.6357c0,.49629,13.1483-12.67738,31.5619,6.32682,47.78821,36.67909,117.02218,55.27066,206.15046,55.27066,90.18878,0,133.83316-22.80741,172.34521-42.92428,31.62532-16.52294,63.47976-30.55827,100.00173-26.38825,35.02286,3.9998,66.334,20.93516,95.53059,39.72312,18.41482,11.8554,34.95739,22.50628,51.96476,27.13454C887.00263,709.58959,823.45086,702.729,820.577,702.46718Z"/>
</svg>
